<svg width="300" height="320" viewBox="0 0 300 320" fill="none" xmlns="http://www.w3.org/2000/svg">
<path d="M237 60L242.431 70.5694L253 76L242.431 81.4306L237 92L231.569 81.4306L221 76L231.569 70.5694L237 60Z" fill="#F5D540"/>
<path d="M201 29L204.394 35.6059L211 39L204.394 42.3941L201 49L197.606 42.3941L191 39L197.606 35.6059L201 29Z" fill="#F5D540"/>
<g filter="url(#filter0_bdi_120_3341)">
<path fill-rule="evenodd" clip-rule="evenodd" d="M86 211.989C85.6675 211.996 85.3342 212 85 212C60.1472 212 40 191.853 40 167C40 150.134 49.2787 135.435 63.0099 127.73C63.0033 127.321 63 126.911 63 126.5C63 85.3548 96.3548 52 137.5 52C172.991 52 202.686 76.8177 210.177 110.046C237.334 111.186 259 133.563 259 161C259 189.167 236.167 212 208 212H86V211.989Z" fill="url(#paint0_radial_120_3341)" fill-opacity="0.77"/>
</g>
<g style="mix-blend-mode:soft-light" filter="url(#filter1_di_120_3341)">
<circle cx="85" cy="167" r="45" fill="#848484"/>
</g>
<path d="M130.523 241.551L135 212H163L157.888 233.3C157.435 235.186 158.865 237 160.805 237H163.424C165.814 237 167.244 239.659 165.927 241.653L134 290L144.994 248.773C145.502 246.868 144.066 245 142.095 245H133.489C131.653 245 130.248 243.366 130.523 241.551Z" fill="url(#paint1_linear_120_3341)"/>
<mask id="mask0_120_3341" style="mask-type:alpha" maskUnits="userSpaceOnUse" x="40" y="52" width="219" height="160">
<path fill-rule="evenodd" clip-rule="evenodd" d="M86 211.989C85.6675 211.996 85.3342 212 85 212C60.1472 212 40 191.853 40 167C40 150.134 49.2787 135.435 63.0099 127.73C63.0033 127.321 63 126.911 63 126.5C63 85.3548 96.3548 52 137.5 52C172.991 52 202.686 76.8177 210.177 110.046C237.334 111.186 259 133.563 259 161C259 189.167 236.167 212 208 212C206.654 212 205.32 211.948 204 211.845V212H86V211.989Z" fill="url(#paint2_radial_120_3341)" fill-opacity="0.77"/>
</mask>
<g mask="url(#mask0_120_3341)">
<g filter="url(#filter2_f_120_3341)">
<path d="M147 174C120.544 193.479 96.5142 207.005 81 212H218C201.343 212 166.189 185.55 147 174Z" fill="url(#paint3_radial_120_3341)"/>
</g>
<g style="mix-blend-mode:screen" filter="url(#filter3_f_120_3341)">
<path d="M153 157C136.284 166.573 112.802 211.545 103 214H203C192.475 214 165.124 162.677 153 157Z" fill="url(#paint4_linear_120_3341)"/>
</g>
<g style="mix-blend-mode:screen" filter="url(#filter4_f_120_3341)">
<path d="M148 169C136.781 175.402 120.579 212.358 114 214L181 212C173.936 212 156.137 172.796 148 169Z" fill="url(#paint5_linear_120_3341)"/>
</g>
</g>
<defs>
<filter id="filter0_bdi_120_3341" x="8" y="36" width="283" height="224" filterUnits="userSpaceOnUse" color-interpolation-filters="sRGB">
<feFlood flood-opacity="0" result="BackgroundImageFix"/>
<feGaussianBlur in="BackgroundImage" stdDeviation="8"/>
<feComposite in2="SourceAlpha" operator="in" result="effect1_backgroundBlur_120_3341"/>
<feColorMatrix in="SourceAlpha" type="matrix" values="0 0 0 0 0 0 0 0 0 0 0 0 0 0 0 0 0 0 127 0" result="hardAlpha"/>
<feOffset dy="16"/>
<feGaussianBlur stdDeviation="16"/>
<feColorMatrix type="matrix" values="0 0 0 0 0 0 0 0 0 0.2015 0 0 0 0 0.3875 0 0 0 0.2 0"/>
<feBlend mode="normal" in2="effect1_backgroundBlur_120_3341" result="effect2_dropShadow_120_3341"/>
<feBlend mode="normal" in="SourceGraphic" in2="effect2_dropShadow_120_3341" result="shape"/>
<feColorMatrix in="SourceAlpha" type="matrix" values="0 0 0 0 0 0 0 0 0 0 0 0 0 0 0 0 0 0 127 0" result="hardAlpha"/>
<feOffset dx="1" dy="2"/>
<feGaussianBlur stdDeviation="7"/>
<feComposite in2="hardAlpha" operator="arithmetic" k2="-1" k3="1"/>
<feColorMatrix type="matrix" values="0 0 0 0 1 0 0 0 0 1 0 0 0 0 1 0 0 0 1 0"/>
<feBlend mode="normal" in2="shape" result="effect3_innerShadow_120_3341"/>
</filter>
<filter id="filter1_di_120_3341" x="32" y="106" width="120" height="118" filterUnits="userSpaceOnUse" color-interpolation-filters="sRGB">
<feFlood flood-opacity="0" result="BackgroundImageFix"/>
<feColorMatrix in="SourceAlpha" type="matrix" values="0 0 0 0 0 0 0 0 0 0 0 0 0 0 0 0 0 0 127 0" result="hardAlpha"/>
<feOffset dx="-2" dy="-10"/>
<feGaussianBlur stdDeviation="3"/>
<feColorMatrix type="matrix" values="0 0 0 0 0 0 0 0 0 0 0 0 0 0 0 0 0 0 0.22 0"/>
<feBlend mode="normal" in2="BackgroundImageFix" result="effect1_dropShadow_120_3341"/>
<feBlend mode="normal" in="SourceGraphic" in2="effect1_dropShadow_120_3341" result="shape"/>
<feColorMatrix in="SourceAlpha" type="matrix" values="0 0 0 0 0 0 0 0 0 0 0 0 0 0 0 0 0 0 127 0" result="hardAlpha"/>
<feOffset dx="22" dy="12"/>
<feGaussianBlur stdDeviation="11"/>
<feComposite in2="hardAlpha" operator="arithmetic" k2="-1" k3="1"/>
<feColorMatrix type="matrix" values="0 0 0 0 1 0 0 0 0 1 0 0 0 0 1 0 0 0 0.74 0"/>
<feBlend mode="normal" in2="shape" result="effect2_innerShadow_120_3341"/>
</filter>
<filter id="filter2_f_120_3341" x="73" y="166" width="153" height="54" filterUnits="userSpaceOnUse" color-interpolation-filters="sRGB">
<feFlood flood-opacity="0" result="BackgroundImageFix"/>
<feBlend mode="normal" in="SourceGraphic" in2="BackgroundImageFix" result="shape"/>
<feGaussianBlur stdDeviation="4" result="effect1_foregroundBlur_120_3341"/>
</filter>
<filter id="filter3_f_120_3341" x="99" y="153" width="108" height="65" filterUnits="userSpaceOnUse" color-interpolation-filters="sRGB">
<feFlood flood-opacity="0" result="BackgroundImageFix"/>
<feBlend mode="normal" in="SourceGraphic" in2="BackgroundImageFix" result="shape"/>
<feGaussianBlur stdDeviation="2" result="effect1_foregroundBlur_120_3341"/>
</filter>
<filter id="filter4_f_120_3341" x="110" y="165" width="75" height="53" filterUnits="userSpaceOnUse" color-interpolation-filters="sRGB">
<feFlood flood-opacity="0" result="BackgroundImageFix"/>
<feBlend mode="normal" in="SourceGraphic" in2="BackgroundImageFix" result="shape"/>
<feGaussianBlur stdDeviation="2" result="effect1_foregroundBlur_120_3341"/>
</filter>
<radialGradient id="paint0_radial_120_3341" cx="0" cy="0" r="1" gradientUnits="userSpaceOnUse" gradientTransform="translate(117.164 86.1145) rotate(90.6693) scale(125.829 143.587)">
<stop stop-color="white"/>
<stop offset="1" stop-color="#99CEFF"/>
</radialGradient>
<linearGradient id="paint1_linear_120_3341" x1="152.067" y1="212" x2="152.067" y2="264" gradientUnits="userSpaceOnUse">
<stop stop-color="#E2BC38"/>
<stop offset="1" stop-color="#FFE244"/>
</linearGradient>
<radialGradient id="paint2_radial_120_3341" cx="0" cy="0" r="1" gradientUnits="userSpaceOnUse" gradientTransform="translate(117.164 86.1144) rotate(90.6693) scale(125.829 143.587)">
<stop stop-color="white"/>
<stop offset="1" stop-color="#99CEFF"/>
</radialGradient>
<radialGradient id="paint3_radial_120_3341" cx="0" cy="0" r="1" gradientUnits="userSpaceOnUse" gradientTransform="translate(159.889 207.786) rotate(-90) scale(21.5393 111.274)">
<stop stop-color="#FFDE41"/>
<stop offset="1" stop-color="#FFD200" stop-opacity="0"/>
</radialGradient>
<linearGradient id="paint4_linear_120_3341" x1="155.688" y1="212.888" x2="155.688" y2="205.542" gradientUnits="userSpaceOnUse">
<stop stop-color="#FFDE41"/>
<stop offset="1" stop-color="#FFD200" stop-opacity="0"/>
</linearGradient>
<linearGradient id="paint5_linear_120_3341" x1="149.361" y1="213.224" x2="149.361" y2="203.077" gradientUnits="userSpaceOnUse">
<stop stop-color="#FFDE41"/>
<stop offset="1" stop-color="#FFD200" stop-opacity="0"/>
</linearGradient>
</defs>
</svg>
