<svg width="300" height="320" viewBox="0 0 300 320" fill="none" xmlns="http://www.w3.org/2000/svg">
<path d="M130.523 230.551L135 201H163L157.888 222.3C157.435 224.186 158.865 226 160.805 226H163.424C165.814 226 167.244 228.659 165.927 230.653L134 279L144.994 237.773C145.502 235.868 144.066 234 142.095 234H133.489C131.653 234 130.248 232.366 130.523 230.551Z" fill="url(#paint0_linear_120_3341)"/>
<g filter="url(#filter0_bdi_120_3341)">
<path fill-rule="evenodd" clip-rule="evenodd" d="M208 201H86V200.989C85.6675 200.996 85.3342 201 85 201C60.1472 201 40 180.853 40 156C40 139.134 49.2787 124.435 63.0099 116.73C63.0033 116.321 63 115.911 63 115.5C63 74.3548 96.3548 41 137.5 41C172.991 41 202.686 65.8177 210.177 99.0456C237.334 100.186 259 122.563 259 150C259 177.497 237.24 199.911 210 200.962V201H208Z" fill="url(#paint1_radial_120_3341)" fill-opacity="0.77"/>
</g>
<g style="mix-blend-mode:soft-light" filter="url(#filter1_di_120_3341)">
<circle cx="85" cy="156" r="45" fill="#848484"/>
</g>
<mask id="mask0_120_3341" style="mask-type:alpha" maskUnits="userSpaceOnUse" x="40" y="41" width="219" height="160">
<path fill-rule="evenodd" clip-rule="evenodd" d="M208 201H86V200.989C85.6675 200.996 85.3342 201 85 201C60.1472 201 40 180.853 40 156C40 139.134 49.2787 124.435 63.0099 116.73C63.0033 116.321 63 115.911 63 115.5C63 74.3548 96.3548 41 137.5 41C172.991 41 202.686 65.8177 210.177 99.0456C237.334 100.186 259 122.563 259 150C259 176.137 239.339 197.681 214 200.651V201H208Z" fill="url(#paint2_radial_120_3341)" fill-opacity="0.77"/>
</mask>
<g mask="url(#mask0_120_3341)">
<g filter="url(#filter2_f_120_3341)">
<path d="M147 163C120.544 182.479 96.5142 196.005 81 201H218C201.343 201 166.189 174.55 147 163Z" fill="url(#paint3_radial_120_3341)"/>
</g>
<g style="mix-blend-mode:screen" filter="url(#filter3_f_120_3341)">
<path d="M153 146C136.284 155.573 112.802 200.545 103 203H203C192.475 203 165.124 151.677 153 146Z" fill="url(#paint4_linear_120_3341)"/>
</g>
<g style="mix-blend-mode:screen" filter="url(#filter4_f_120_3341)">
<path d="M149 158C137.781 164.402 121.579 201.358 115 203L182 201C174.936 201 157.137 161.796 149 158Z" fill="url(#paint5_linear_120_3341)"/>
</g>
</g>
<defs>
<filter id="filter0_bdi_120_3341" x="8" y="25" width="283" height="224" filterUnits="userSpaceOnUse" color-interpolation-filters="sRGB">
<feFlood flood-opacity="0" result="BackgroundImageFix"/>
<feGaussianBlur in="BackgroundImage" stdDeviation="8"/>
<feComposite in2="SourceAlpha" operator="in" result="effect1_backgroundBlur_120_3341"/>
<feColorMatrix in="SourceAlpha" type="matrix" values="0 0 0 0 0 0 0 0 0 0 0 0 0 0 0 0 0 0 127 0" result="hardAlpha"/>
<feOffset dy="16"/>
<feGaussianBlur stdDeviation="16"/>
<feColorMatrix type="matrix" values="0 0 0 0 0 0 0 0 0 0.2015 0 0 0 0 0.3875 0 0 0 0.2 0"/>
<feBlend mode="normal" in2="effect1_backgroundBlur_120_3341" result="effect2_dropShadow_120_3341"/>
<feBlend mode="normal" in="SourceGraphic" in2="effect2_dropShadow_120_3341" result="shape"/>
<feColorMatrix in="SourceAlpha" type="matrix" values="0 0 0 0 0 0 0 0 0 0 0 0 0 0 0 0 0 0 127 0" result="hardAlpha"/>
<feOffset dx="1" dy="2"/>
<feGaussianBlur stdDeviation="7"/>
<feComposite in2="hardAlpha" operator="arithmetic" k2="-1" k3="1"/>
<feColorMatrix type="matrix" values="0 0 0 0 1 0 0 0 0 1 0 0 0 0 1 0 0 0 1 0"/>
<feBlend mode="normal" in2="shape" result="effect3_innerShadow_120_3341"/>
</filter>
<filter id="filter1_di_120_3341" x="32" y="95" width="120" height="118" filterUnits="userSpaceOnUse" color-interpolation-filters="sRGB">
<feFlood flood-opacity="0" result="BackgroundImageFix"/>
<feColorMatrix in="SourceAlpha" type="matrix" values="0 0 0 0 0 0 0 0 0 0 0 0 0 0 0 0 0 0 127 0" result="hardAlpha"/>
<feOffset dx="-2" dy="-10"/>
<feGaussianBlur stdDeviation="3"/>
<feColorMatrix type="matrix" values="0 0 0 0 0 0 0 0 0 0 0 0 0 0 0 0 0 0 0.22 0"/>
<feBlend mode="normal" in2="BackgroundImageFix" result="effect1_dropShadow_120_3341"/>
<feBlend mode="normal" in="SourceGraphic" in2="effect1_dropShadow_120_3341" result="shape"/>
<feColorMatrix in="SourceAlpha" type="matrix" values="0 0 0 0 0 0 0 0 0 0 0 0 0 0 0 0 0 0 127 0" result="hardAlpha"/>
<feOffset dx="22" dy="12"/>
<feGaussianBlur stdDeviation="11"/>
<feComposite in2="hardAlpha" operator="arithmetic" k2="-1" k3="1"/>
<feColorMatrix type="matrix" values="0 0 0 0 1 0 0 0 0 1 0 0 0 0 1 0 0 0 0.74 0"/>
<feBlend mode="normal" in2="shape" result="effect2_innerShadow_120_3341"/>
</filter>
<filter id="filter2_f_120_3341" x="73" y="155" width="153" height="54" filterUnits="userSpaceOnUse" color-interpolation-filters="sRGB">
<feFlood flood-opacity="0" result="BackgroundImageFix"/>
<feBlend mode="normal" in="SourceGraphic" in2="BackgroundImageFix" result="shape"/>
<feGaussianBlur stdDeviation="4" result="effect1_foregroundBlur_120_3341"/>
</filter>
<filter id="filter3_f_120_3341" x="99" y="142" width="108" height="65" filterUnits="userSpaceOnUse" color-interpolation-filters="sRGB">
<feFlood flood-opacity="0" result="BackgroundImageFix"/>
<feBlend mode="normal" in="SourceGraphic" in2="BackgroundImageFix" result="shape"/>
<feGaussianBlur stdDeviation="2" result="effect1_foregroundBlur_120_3341"/>
</filter>
<filter id="filter4_f_120_3341" x="111" y="154" width="75" height="53" filterUnits="userSpaceOnUse" color-interpolation-filters="sRGB">
<feFlood flood-opacity="0" result="BackgroundImageFix"/>
<feBlend mode="normal" in="SourceGraphic" in2="BackgroundImageFix" result="shape"/>
<feGaussianBlur stdDeviation="2" result="effect1_foregroundBlur_120_3341"/>
</filter>
<linearGradient id="paint0_linear_120_3341" x1="152.067" y1="201" x2="152.067" y2="253" gradientUnits="userSpaceOnUse">
<stop stop-color="#E2BC38"/>
<stop offset="1" stop-color="#FFE244"/>
</linearGradient>
<radialGradient id="paint1_radial_120_3341" cx="0" cy="0" r="1" gradientUnits="userSpaceOnUse" gradientTransform="translate(117.164 75.1144) rotate(90.6693) scale(125.829 143.587)">
<stop stop-color="white"/>
<stop offset="1" stop-color="#99CEFF"/>
</radialGradient>
<radialGradient id="paint2_radial_120_3341" cx="0" cy="0" r="1" gradientUnits="userSpaceOnUse" gradientTransform="translate(117.164 75.1144) rotate(90.6693) scale(125.829 143.587)">
<stop stop-color="white"/>
<stop offset="1" stop-color="#99CEFF"/>
</radialGradient>
<radialGradient id="paint3_radial_120_3341" cx="0" cy="0" r="1" gradientUnits="userSpaceOnUse" gradientTransform="translate(159.889 196.786) rotate(-90) scale(21.5393 111.274)">
<stop stop-color="#FFDE41"/>
<stop offset="1" stop-color="#FFD200" stop-opacity="0"/>
</radialGradient>
<linearGradient id="paint4_linear_120_3341" x1="155.688" y1="201.888" x2="155.688" y2="194.542" gradientUnits="userSpaceOnUse">
<stop stop-color="#FFDE41"/>
<stop offset="1" stop-color="#FFD200" stop-opacity="0"/>
</linearGradient>
<linearGradient id="paint5_linear_120_3341" x1="150.361" y1="202.224" x2="150.361" y2="192.077" gradientUnits="userSpaceOnUse">
<stop stop-color="#FFDE41"/>
<stop offset="1" stop-color="#FFD200" stop-opacity="0"/>
</linearGradient>
</defs>
</svg>
