<svg width="300" height="320" viewBox="0 0 300 320" fill="none" xmlns="http://www.w3.org/2000/svg">
<path d="M131.523 230.551L136 201H164L158.888 222.3C158.435 224.186 159.865 226 161.805 226H164.424C166.814 226 168.244 228.659 166.927 230.653L135 279L145.994 237.773C146.502 235.868 145.066 234 143.095 234H134.489C132.653 234 131.248 232.366 131.523 230.551Z" fill="url(#paint0_linear_120_3320)"/>
<g filter="url(#filter0_bdi_120_3320)">
<path fill-rule="evenodd" clip-rule="evenodd" d="M209 201H87V200.989C86.6675 200.996 86.3342 201 86 201C61.1472 201 41 180.853 41 156C41 139.134 50.2787 124.435 64.0099 116.73C64.0033 116.321 64 115.911 64 115.5C64 74.3548 97.3548 41 138.5 41C173.991 41 203.686 65.8177 211.177 99.0456C238.334 100.186 260 122.563 260 150C260 176.82 239.297 198.805 213 200.845V201H209Z" fill="url(#paint1_radial_120_3320)" fill-opacity="0.77"/>
</g>
<g style="mix-blend-mode:soft-light" filter="url(#filter1_di_120_3320)">
<circle cx="86" cy="156" r="45" fill="#848484"/>
</g>
<mask id="mask0_120_3320" style="mask-type:alpha" maskUnits="userSpaceOnUse" x="41" y="41" width="219" height="160">
<path fill-rule="evenodd" clip-rule="evenodd" d="M87 200.989C86.6675 200.996 86.3342 201 86 201C61.1472 201 41 180.853 41 156C41 139.134 50.2787 124.435 64.0099 116.73C64.0033 116.321 64 115.911 64 115.5C64 74.3548 97.3548 41 138.5 41C173.991 41 203.686 65.8177 211.177 99.0456C238.334 100.186 260 122.563 260 150C260 178.167 237.167 201 209 201C207.654 201 206.32 200.948 205 200.845V201H87V200.989Z" fill="url(#paint2_radial_120_3320)" fill-opacity="0.77"/>
</mask>
<g mask="url(#mask0_120_3320)">
<g filter="url(#filter2_f_120_3320)">
<path d="M148 163C121.544 182.479 97.5142 196.005 82 201H219C202.343 201 167.189 174.55 148 163Z" fill="url(#paint3_radial_120_3320)"/>
</g>
<g style="mix-blend-mode:screen" filter="url(#filter3_f_120_3320)">
<path d="M155 146C137.448 155.573 112.293 200.545 102 203H207C195.949 203 167.73 151.677 155 146Z" fill="url(#paint4_linear_120_3320)"/>
</g>
<g style="mix-blend-mode:screen" filter="url(#filter4_f_120_3320)">
<path d="M150 158C138.781 164.402 122.579 201.358 116 203L183 201C175.936 201 158.137 161.796 150 158Z" fill="url(#paint5_linear_120_3320)"/>
</g>
</g>
<defs>
<filter id="filter0_bdi_120_3320" x="9" y="25" width="283" height="224" filterUnits="userSpaceOnUse" color-interpolation-filters="sRGB">
<feFlood flood-opacity="0" result="BackgroundImageFix"/>
<feGaussianBlur in="BackgroundImage" stdDeviation="8"/>
<feComposite in2="SourceAlpha" operator="in" result="effect1_backgroundBlur_120_3320"/>
<feColorMatrix in="SourceAlpha" type="matrix" values="0 0 0 0 0 0 0 0 0 0 0 0 0 0 0 0 0 0 127 0" result="hardAlpha"/>
<feOffset dy="16"/>
<feGaussianBlur stdDeviation="16"/>
<feColorMatrix type="matrix" values="0 0 0 0 0 0 0 0 0 0.2015 0 0 0 0 0.3875 0 0 0 0.2 0"/>
<feBlend mode="normal" in2="effect1_backgroundBlur_120_3320" result="effect2_dropShadow_120_3320"/>
<feBlend mode="normal" in="SourceGraphic" in2="effect2_dropShadow_120_3320" result="shape"/>
<feColorMatrix in="SourceAlpha" type="matrix" values="0 0 0 0 0 0 0 0 0 0 0 0 0 0 0 0 0 0 127 0" result="hardAlpha"/>
<feOffset dx="1" dy="2"/>
<feGaussianBlur stdDeviation="7"/>
<feComposite in2="hardAlpha" operator="arithmetic" k2="-1" k3="1"/>
<feColorMatrix type="matrix" values="0 0 0 0 1 0 0 0 0 1 0 0 0 0 1 0 0 0 1 0"/>
<feBlend mode="normal" in2="shape" result="effect3_innerShadow_120_3320"/>
</filter>
<filter id="filter1_di_120_3320" x="33" y="95" width="120" height="118" filterUnits="userSpaceOnUse" color-interpolation-filters="sRGB">
<feFlood flood-opacity="0" result="BackgroundImageFix"/>
<feColorMatrix in="SourceAlpha" type="matrix" values="0 0 0 0 0 0 0 0 0 0 0 0 0 0 0 0 0 0 127 0" result="hardAlpha"/>
<feOffset dx="-2" dy="-10"/>
<feGaussianBlur stdDeviation="3"/>
<feColorMatrix type="matrix" values="0 0 0 0 0 0 0 0 0 0 0 0 0 0 0 0 0 0 0.22 0"/>
<feBlend mode="normal" in2="BackgroundImageFix" result="effect1_dropShadow_120_3320"/>
<feBlend mode="normal" in="SourceGraphic" in2="effect1_dropShadow_120_3320" result="shape"/>
<feColorMatrix in="SourceAlpha" type="matrix" values="0 0 0 0 0 0 0 0 0 0 0 0 0 0 0 0 0 0 127 0" result="hardAlpha"/>
<feOffset dx="22" dy="12"/>
<feGaussianBlur stdDeviation="11"/>
<feComposite in2="hardAlpha" operator="arithmetic" k2="-1" k3="1"/>
<feColorMatrix type="matrix" values="0 0 0 0 1 0 0 0 0 1 0 0 0 0 1 0 0 0 0.74 0"/>
<feBlend mode="normal" in2="shape" result="effect2_innerShadow_120_3320"/>
</filter>
<filter id="filter2_f_120_3320" x="74" y="155" width="153" height="54" filterUnits="userSpaceOnUse" color-interpolation-filters="sRGB">
<feFlood flood-opacity="0" result="BackgroundImageFix"/>
<feBlend mode="normal" in="SourceGraphic" in2="BackgroundImageFix" result="shape"/>
<feGaussianBlur stdDeviation="4" result="effect1_foregroundBlur_120_3320"/>
</filter>
<filter id="filter3_f_120_3320" x="98" y="142" width="113" height="65" filterUnits="userSpaceOnUse" color-interpolation-filters="sRGB">
<feFlood flood-opacity="0" result="BackgroundImageFix"/>
<feBlend mode="normal" in="SourceGraphic" in2="BackgroundImageFix" result="shape"/>
<feGaussianBlur stdDeviation="2" result="effect1_foregroundBlur_120_3320"/>
</filter>
<filter id="filter4_f_120_3320" x="112" y="154" width="75" height="53" filterUnits="userSpaceOnUse" color-interpolation-filters="sRGB">
<feFlood flood-opacity="0" result="BackgroundImageFix"/>
<feBlend mode="normal" in="SourceGraphic" in2="BackgroundImageFix" result="shape"/>
<feGaussianBlur stdDeviation="2" result="effect1_foregroundBlur_120_3320"/>
</filter>
<linearGradient id="paint0_linear_120_3320" x1="153.067" y1="201" x2="153.067" y2="253" gradientUnits="userSpaceOnUse">
<stop stop-color="#E2BC38"/>
<stop offset="1" stop-color="#FFE244"/>
</linearGradient>
<radialGradient id="paint1_radial_120_3320" cx="0" cy="0" r="1" gradientUnits="userSpaceOnUse" gradientTransform="translate(118.164 75.1144) rotate(90.6693) scale(125.829 143.587)">
<stop stop-color="white"/>
<stop offset="1" stop-color="#99CEFF"/>
</radialGradient>
<radialGradient id="paint2_radial_120_3320" cx="0" cy="0" r="1" gradientUnits="userSpaceOnUse" gradientTransform="translate(118.164 75.1144) rotate(90.6693) scale(125.829 143.587)">
<stop stop-color="white"/>
<stop offset="1" stop-color="#99CEFF"/>
</radialGradient>
<radialGradient id="paint3_radial_120_3320" cx="0" cy="0" r="1" gradientUnits="userSpaceOnUse" gradientTransform="translate(160.889 196.786) rotate(-90) scale(21.5393 111.274)">
<stop stop-color="#FFDE41"/>
<stop offset="1" stop-color="#FFD200" stop-opacity="0"/>
</radialGradient>
<linearGradient id="paint4_linear_120_3320" x1="157.322" y1="201.888" x2="157.322" y2="194.542" gradientUnits="userSpaceOnUse">
<stop stop-color="#FFDE41"/>
<stop offset="1" stop-color="#FFD200" stop-opacity="0"/>
</linearGradient>
<linearGradient id="paint5_linear_120_3320" x1="151.361" y1="202.224" x2="151.361" y2="192.077" gradientUnits="userSpaceOnUse">
<stop stop-color="#FFDE41"/>
<stop offset="1" stop-color="#FFD200" stop-opacity="0"/>
</linearGradient>
</defs>
</svg>
